<svg width="0" height="0" class="hidden">
  <symbol id="chevron-left" version="1.1" xml:space="preserve" xmlns="http://www.w3.org/2000/svg" xmlns:xlink="http://www.w3.org/1999/xlink" viewBox="0 0 46.001 85.999">
    <path d="M44.998,80.094c1.338,1.352,1.338,3.541,0,4.893c-1.336,1.35-3.506,1.352-4.844,0L1.003,45.447  c-1.338-1.352-1.338-3.543,0-4.895l39.15-39.539c1.338-1.352,3.506-1.352,4.844,0S46.335,4.555,45,5.906L9.294,43L44.998,80.094z"></path>
    <g></g>
    <g></g>
    <g></g>
    <g></g>
    <g></g>
    <g></g>
    <g></g>
    <g></g>
    <g></g>
    <g></g>
    <g></g>
    <g></g>
    <g></g>
    <g></g>
    <g></g>
  </symbol>
  <symbol id="chevron-right" version="1.1" xml:space="preserve" xmlns="http://www.w3.org/2000/svg" xmlns:xlink="http://www.w3.org/1999/xlink" viewBox="0 0 46.001 85.999">
    <path d="M1.003,80.094c-1.338,1.352-1.338,3.541,0,4.893c1.337,1.35,3.506,1.352,4.845,0l39.149-39.539  c1.338-1.352,1.338-3.543,0-4.895L5.848,1.014c-1.339-1.352-3.506-1.352-4.845,0c-1.338,1.352-1.338,3.541-0.001,4.893L36.706,43  L1.003,80.094z"></path>
    <g></g>
    <g></g>
    <g></g>
    <g></g>
    <g></g>
    <g></g>
    <g></g>
    <g></g>
    <g></g>
    <g></g>
    <g></g>
    <g></g>
    <g></g>
    <g></g>
    <g></g>
  </symbol>
</svg>
